<svg xmlns="http://www.w3.org/2000/svg" width="64" height="64" viewBox="0 0 64 64">
  <rect x="1.5" y="1.5" width="61" height="61" rx="14" fill="#F8F6F3"/>
  <rect x="6" y="6" width="52" height="52" rx="10.5" fill="none" stroke="#7D1F34" stroke-width="1.6"/>
  <path d="M758-1271L1064-483L921-461L1219-1267Q1247-1343 1284-1371.50Q1321-1400 1386-1400L1776-1400Q1819-1400 1839.50-1382.50Q1860-1365 1860-1334Q1860-1306 1847-1288Q1834-1270 1810-1261L1772-1247Q1741-1237 1730.50-1220Q1720-1203 1722-1168L1785-228Q1787-191 1797.50-176.50Q1808-162 1833-153L1872-139Q1894-131 1906-113.50Q1918-96 1918-70Q1918-40 1897.50-20Q1877 0 1834 0L1274 0Q1230 0 1209.50-18Q1189-36 1189-66Q1189-92 1200-110.50Q1211-129 1240-139L1279-153Q1309-163 1319.50-179.50Q1330-196 1328-229L1254-1222L1382-1234L981-145Q953-70 924.50-49.50Q896-29 856-29Q826-29 802-36Q778-43 757-69Q736-95 714-152L302-1195L426-1217L349-266Q345-218 370-192.50Q395-167 433-146L461-130Q478-121 487-106.50Q496-92 496-69Q496-38 476-19Q456 0 413 0L116 0Q73 0 53-18Q33-36 33-66Q33-97 49-113Q65-129 90-142L111-152Q143-167 166-193.50Q189-220 193-267L261-1121Q266-1180 255-1208Q244-1236 212-1247L174-1261Q148-1271 135.50-1288.50Q123-1306 123-1334Q123-1400 207-1400L593-1400Q654-1400 690.50-1374.50Q727-1349 758-1271" transform="translate(11.096 47) scale(0.021429)" fill="#252D6B"/>
</svg>
